<svg width="24" height="24" viewBox="0 0 24 24" fill="none" xmlns="http://www.w3.org/2000/svg">
<path d="M3.30682 20.0028C3.33643 19.9138 3.36604 19.805 3.40553 19.6962C3.94349 18.2869 4.48145 16.8777 5.01941 15.4684C5.22176 14.9393 5.13293 14.7118 4.60483 14.4794C3.23279 13.8663 1.86567 13.2531 0.493627 12.6449C0.207372 12.5213 0.00501975 12.3433 8.43231e-05 12.007C-0.0048511 11.656 0.207372 11.4829 0.503498 11.3494C1.87061 10.7461 3.23279 10.133 4.59496 9.52475C5.13292 9.28245 5.2267 9.06488 5.01447 8.52095C4.47158 7.10674 3.92868 5.68759 3.39072 4.27337C3.22292 3.83823 3.40553 3.42781 3.8201 3.34375C3.96817 3.31408 4.14584 3.3487 4.2939 3.40803C5.70543 3.93713 7.11203 4.48106 8.52356 5.01509C9.05659 5.21783 9.28362 5.12882 9.51558 4.60962C10.1325 3.23002 10.7445 1.85537 11.3614 0.475771C11.4799 0.208752 11.6477 0.015905 11.9586 0.00107061C12.2794 -0.0137638 12.4768 0.12469 12.6348 0.470826C13.1629 1.65263 13.6909 2.83938 14.219 4.02119C14.3177 4.24371 14.4165 4.47117 14.5201 4.69368C14.7027 5.09421 14.9594 5.203 15.3789 5.04476C16.7904 4.51072 18.197 3.9668 19.6085 3.4377C19.7813 3.37342 19.9787 3.31408 20.1514 3.33881C20.5808 3.39815 20.7782 3.8234 20.6104 4.26843C20.2057 5.34145 19.7911 6.41447 19.3815 7.48749C19.2384 7.86329 19.0952 8.2391 18.9521 8.6149C18.7942 9.0451 18.8978 9.29729 19.3173 9.48519C20.719 10.1082 22.1157 10.7362 23.5174 11.3593C23.774 11.473 23.9665 11.6312 23.9961 11.9329C24.0257 12.2642 23.8875 12.4768 23.5322 12.635C22.4266 13.1295 21.3162 13.624 20.2106 14.1185C19.9244 14.247 19.6431 14.3756 19.3568 14.4992C18.8781 14.7118 18.7794 14.9442 18.9719 15.4387C19.4999 16.8233 20.033 18.2078 20.5611 19.5973C20.6104 19.7259 20.6647 19.8594 20.6746 19.9978C20.7141 20.4824 20.2304 20.7989 19.7319 20.611C18.5227 20.1511 17.3136 19.6863 16.0994 19.2215C15.8675 19.1325 15.6404 19.0435 15.4085 18.9594C14.9445 18.7863 14.7027 18.8852 14.5004 19.3352C13.8785 20.7297 13.2517 22.1191 12.6348 23.5136C12.5163 23.7806 12.3534 23.9784 12.0425 23.9982C11.7168 24.0179 11.5144 23.8795 11.3516 23.5136C10.7297 22.1191 10.1078 20.7297 9.48103 19.3352C9.42674 19.2165 9.35765 19.0979 9.26881 19.0089C9.05165 18.8061 8.80488 18.8655 8.55317 18.9644C7.1219 19.5132 5.69063 20.0621 4.25936 20.606C3.82997 20.7692 3.44995 20.5961 3.33643 20.1907C3.32656 20.1412 3.32162 20.0819 3.30682 20.0028Z" fill="black"/>
</svg>
