<svg width="24" height="24" viewBox="0 0 24 24" fill="none" xmlns="http://www.w3.org/2000/svg">
<mask id="mask0_2_28" style="mask-type:alpha" maskUnits="userSpaceOnUse" x="0" y="0" width="24" height="24">
<rect width="24" height="24" fill="#D9D9D9"/>
</mask>
<g mask="url(#mask0_2_28)">
<path d="M6.16389 16.53C5.57315 15.95 5.27778 15.24 5.27778 14.4C5.27778 13.56 5.57315 12.85 6.16389 12.27C6.75463 11.69 7.47778 11.4 8.33333 11.4C9.18889 11.4 9.91204 11.69 10.5028 12.27C11.0935 12.85 11.3889 13.56 11.3889 14.4C11.3889 15.24 11.0935 15.95 10.5028 16.53C9.91204 17.11 9.18889 17.4 8.33333 17.4C7.47778 17.4 6.75463 17.11 6.16389 16.53ZM3.44444 24C2.77222 24 2.19676 23.765 1.71806 23.295C1.23935 22.825 1 22.26 1 21.6V4.8C1 4.14 1.23935 3.575 1.71806 3.105C2.19676 2.635 2.77222 2.4 3.44444 2.4H4.66667V0H7.11111V2.4H16.8889V0H19.3333V2.4H20.5556C21.2278 2.4 21.8032 2.635 22.2819 3.105C22.7606 3.575 23 4.14 23 4.8V21.6C23 22.26 22.7606 22.825 22.2819 23.295C21.8032 23.765 21.2278 24 20.5556 24H3.44444ZM3.44444 21.6H20.5556V9.6H3.44444V21.6ZM3.44444 7.2H20.5556V4.8H3.44444V7.2Z" fill="#1C1B1F"/>
</g>
</svg>
